<svg xmlns="http://www.w3.org/2000/svg" viewBox="0 0 160 160" role="img" aria-labelledby="title desc" shape-rendering="crispEdges">
  <title id="title">Maru Pixel Crest</title>
  <desc id="desc">Logo pixel art do Maru com o kana ma em um cartucho arcade neon.</desc>
  <rect width="160" height="160" fill="#050713"/>
  <rect x="10" y="10" width="140" height="140" fill="#0b1022"/>
  <rect x="10" y="10" width="140" height="10" fill="#35e8ff"/>
  <rect x="10" y="140" width="140" height="10" fill="#ff3f8b"/>
  <rect x="10" y="20" width="10" height="120" fill="#35e8ff"/>
  <rect x="140" y="20" width="10" height="120" fill="#ff3f8b"/>
  <rect x="20" y="20" width="10" height="10" fill="#ffffff"/>
  <rect x="130" y="130" width="10" height="10" fill="#ffffff"/>
  <rect x="30" y="30" width="100" height="100" fill="#111a33"/>
  <rect x="40" y="40" width="80" height="10" fill="#273d66"/>
  <rect x="40" y="110" width="80" height="10" fill="#273d66"/>
  <rect x="40" y="50" width="10" height="60" fill="#273d66"/>
  <rect x="110" y="50" width="10" height="60" fill="#273d66"/>
  <g fill="#148fe8">
    <rect x="44" y="34" width="80" height="10"/>
    <rect x="84" y="34" width="10" height="100"/>
    <rect x="34" y="64" width="100" height="10"/>
    <rect x="64" y="104" width="50" height="10"/>
    <rect x="54" y="114" width="70" height="10"/>
    <rect x="64" y="124" width="70" height="10"/>
    <rect x="114" y="94" width="10" height="40"/>
    <rect x="84" y="134" width="40" height="10"/>
  </g>
  <g fill="#ff3f8b">
    <rect x="40" y="30" width="80" height="10"/>
    <rect x="80" y="30" width="10" height="100"/>
    <rect x="30" y="60" width="100" height="10"/>
    <rect x="60" y="100" width="50" height="10"/>
    <rect x="50" y="110" width="70" height="10"/>
    <rect x="60" y="120" width="70" height="10"/>
    <rect x="110" y="90" width="10" height="40"/>
    <rect x="80" y="130" width="40" height="10"/>
  </g>
  <g fill="#ffffff">
    <rect x="42" y="32" width="76" height="10"/>
    <rect x="82" y="32" width="10" height="96"/>
    <rect x="32" y="62" width="96" height="10"/>
    <rect x="62" y="102" width="46" height="10"/>
    <rect x="52" y="112" width="66" height="10"/>
    <rect x="62" y="122" width="66" height="10"/>
    <rect x="112" y="92" width="10" height="38"/>
    <rect x="82" y="132" width="38" height="10"/>
  </g>
  <rect x="36" y="144" width="12" height="6" fill="#ffd84a"/>
  <rect x="56" y="144" width="12" height="6" fill="#35f29a"/>
  <rect x="76" y="144" width="12" height="6" fill="#35e8ff"/>
  <rect x="96" y="144" width="12" height="6" fill="#9d63ff"/>
  <rect x="116" y="144" width="12" height="6" fill="#ff9f35"/>
</svg>
